<svg xmlns="http://www.w3.org/2000/svg" xmlns:xlink="http://www.w3.org/1999/xlink" viewBox="0 0 512 512" width="512" height="512" style="width: 100%; height: 100%; transform: translate3d(0,0,0); content-visibility: visible;" preserveAspectRatio="xMidYMid meet"><defs><clipPath id="__lottie_element_2"><rect width="512" height="512" x="0" y="0"></rect></clipPath><linearGradient id="__lottie_element_18" spreadMethod="pad" gradientUnits="userSpaceOnUse" x1="-68.49199676513672" y1="-0.2770000100135803" x2="68.47200012207031" y2="-0.2770000100135803"><stop offset="11%" stop-color="rgb(236,194,240)" stop-opacity="0.8999999761581421"></stop><stop offset="31%" stop-color="rgb(246,224,248)" stop-opacity="0.44999998807907104"></stop><stop offset="51%" stop-color="rgb(255,255,255)" stop-opacity="0"></stop><stop offset="71%" stop-color="rgb(246,224,248)" stop-opacity="0.44999998807907104"></stop><stop offset="92%" stop-color="rgb(236,194,240)" stop-opacity="0.8999999761581421"></stop></linearGradient><radialGradient id="__lottie_element_19" spreadMethod="pad" gradientUnits="userSpaceOnUse" cx="-0.6169999837875366" cy="-0.19300000369548798" r="68.23399674892426" fx="-0.6169999837875366" fy="-0.19300000369548798"><stop offset="57%" stop-color="rgb(56,30,140)"></stop><stop offset="71%" stop-color="rgb(83,57,165)"></stop><stop offset="85%" stop-color="rgb(110,84,191)"></stop><stop offset="93%" stop-color="rgb(146,114,222)"></stop><stop offset="100%" stop-color="rgb(182,144,252)"></stop></radialGradient><radialGradient id="__lottie_element_20" spreadMethod="pad" gradientUnits="userSpaceOnUse" cx="2.507999897003174" cy="-22.277000427246094" r="93.5254534661671" fx="2.507999897003174" fy="-22.277000427246094"><stop offset="0%" stop-color="rgb(255,255,255)" stop-opacity="0"></stop><stop offset="50%" stop-color="rgb(232,215,250)" stop-opacity="0.44999998807907104"></stop><stop offset="100%" stop-color="rgb(208,176,245)" stop-opacity="0.8999999761581421"></stop></radialGradient><linearGradient id="__lottie_element_30" spreadMethod="pad" gradientUnits="userSpaceOnUse" x1="-3.7039999961853027" y1="-6.117000102996826" x2="63.31700134277344" y2="91.9260025024414"><stop offset="0%" stop-color="rgb(243,242,255)"></stop><stop offset="50%" stop-color="rgb(204,197,237)"></stop><stop offset="100%" stop-color="rgb(165,151,219)"></stop></linearGradient><linearGradient id="__lottie_element_31" spreadMethod="pad" gradientUnits="userSpaceOnUse" x1="-17.875" y1="-13.699000358581543" x2="28.849000930786133" y2="10.428999900817871"><stop offset="0%" stop-color="rgb(249,149,221)"></stop><stop offset="50%" stop-color="rgb(221,94,172)"></stop><stop offset="100%" stop-color="rgb(193,39,124)"></stop></linearGradient><radialGradient id="__lottie_element_38" spreadMethod="pad" gradientUnits="userSpaceOnUse" cx="-12.128999710083008" cy="-15.156000137329102" r="61.96702717701148" fx="-12.128999710083008" fy="-15.156000137329102"><stop offset="0%" stop-color="rgb(255,255,255)" stop-opacity="1"></stop><stop offset="50%" stop-color="rgb(255,255,255)" stop-opacity="0.5"></stop><stop offset="100%" stop-color="rgb(255,255,255)" stop-opacity="0"></stop></radialGradient><linearGradient id="__lottie_element_42" spreadMethod="pad" gradientUnits="userSpaceOnUse" x1="9.83899974822998" y1="98.0979995727539" x2="-2.7009999752044678" y2="1.6690000295639038"><stop offset="0%" stop-color="rgb(255,255,255)" stop-opacity="0"></stop><stop offset="50%" stop-color="rgb(255,255,255)" stop-opacity="0.5"></stop><stop offset="100%" stop-color="rgb(255,255,255)" stop-opacity="1"></stop></linearGradient><radialGradient id="__lottie_element_46" spreadMethod="pad" gradientUnits="userSpaceOnUse" cx="-2" cy="-110.91200256347656" r="235.38921772847814" fx="-2" fy="-110.91200256347656"><stop offset="52%" stop-color="rgb(255,0,119)" stop-opacity="0"></stop><stop offset="76%" stop-color="rgb(255,33,168)" stop-opacity="0.3499999940395355"></stop><stop offset="100%" stop-color="rgb(255,66,216)" stop-opacity="0.699999988079071"></stop></radialGradient><radialGradient id="__lottie_element_47" spreadMethod="pad" gradientUnits="userSpaceOnUse" cx="-2" cy="-111.7020034790039" r="235.38921772847814" fx="-2" fy="-111.7020034790039"><stop offset="0%" stop-color="rgb(235,161,255)" stop-opacity="0.8999999761581421"></stop><stop offset="31%" stop-color="rgb(245,208,255)" stop-opacity="0.44999998807907104"></stop><stop offset="63%" stop-color="rgb(255,255,255)" stop-opacity="0"></stop></radialGradient><radialGradient id="__lottie_element_51" spreadMethod="pad" gradientUnits="userSpaceOnUse" cx="-43.28200149536133" cy="-104.17400360107422" r="141.55234376224024" fx="-43.28200149536133" fy="-104.17400360107422"><stop offset="0%" stop-color="rgb(143,21,93)"></stop><stop offset="36%" stop-color="rgb(199,13,124)"></stop><stop offset="73%" stop-color="rgb(255,5,155)"></stop><stop offset="86%" stop-color="rgb(255,93,191)"></stop><stop offset="100%" stop-color="rgb(255,181,227)"></stop></radialGradient><radialGradient id="__lottie_element_52" spreadMethod="pad" gradientUnits="userSpaceOnUse" cx="4.256999969482422" cy="91.84300231933594" r="204.93443285848522" fx="4.256999969482422" fy="91.84300231933594"><stop offset="0%" stop-color="rgb(87,13,56)"></stop><stop offset="36%" stop-color="rgb(155,8,96)"></stop><stop offset="73%" stop-color="rgb(222,4,135)"></stop><stop offset="86%" stop-color="rgb(238,12,150)"></stop><stop offset="100%" stop-color="rgb(255,21,165)"></stop></radialGradient><radialGradient id="__lottie_element_56" spreadMethod="pad" gradientUnits="userSpaceOnUse" cx="-5.074999809265137" cy="12.843000411987305" r="109.5346780222265" fx="-5.074999809265137" fy="12.843000411987305"><stop offset="24%" stop-color="rgb(222,91,219)" stop-opacity="0.8999999761581421"></stop><stop offset="62%" stop-color="rgb(238,173,237)" stop-opacity="0.44999998807907104"></stop><stop offset="100%" stop-color="rgb(255,255,255)" stop-opacity="0"></stop></radialGradient><radialGradient id="__lottie_element_60" spreadMethod="pad" gradientUnits="userSpaceOnUse" cx="-0.722000002861023" cy="-0.17100000381469727" r="152.35899341106415" fx="-0.722000002861023" fy="-0.17100000381469727"><stop offset="57%" stop-color="rgb(56,30,140)"></stop><stop offset="71%" stop-color="rgb(83,57,165)"></stop><stop offset="85%" stop-color="rgb(110,84,191)"></stop><stop offset="93%" stop-color="rgb(146,114,222)"></stop><stop offset="100%" stop-color="rgb(182,144,252)"></stop></radialGradient><linearGradient id="__lottie_element_61" spreadMethod="pad" gradientUnits="userSpaceOnUse" x1="-171" y1="-0.9120000004768372" x2="169.06199645996094" y2="-0.9120000004768372"><stop offset="0%" stop-color="rgb(202,209,232)" stop-opacity="0.8999999761581421"></stop><stop offset="27%" stop-color="rgb(228,232,244)" stop-opacity="0.44999998807907104"></stop><stop offset="54%" stop-color="rgb(255,255,255)" stop-opacity="0"></stop><stop offset="77%" stop-color="rgb(228,232,244)" stop-opacity="0.44999998807907104"></stop><stop offset="100%" stop-color="rgb(202,209,232)" stop-opacity="0.8999999761581421"></stop></linearGradient><radialGradient id="__lottie_element_65" spreadMethod="pad" gradientUnits="userSpaceOnUse" cx="0" cy="-0.8349999785423279" r="61.61199951171875" fx="0" fy="-0.8349999785423279"><stop offset="76%" stop-color="rgb(233,195,247)" stop-opacity="0.6809999942779541"></stop><stop offset="88%" stop-color="rgb(230,185,246)" stop-opacity="0.7910000085830688"></stop><stop offset="100%" stop-color="rgb(227,176,245)" stop-opacity="0.8999999761581421"></stop></radialGradient><linearGradient id="__lottie_element_66" spreadMethod="pad" gradientUnits="userSpaceOnUse" x1="-1" y1="4.638000011444092" x2="-0.6169999837875366" y2="-8.956999778747559"><stop offset="0%" stop-color="rgb(240,180,235)" stop-opacity="0.8999999761581421"></stop><stop offset="50%" stop-color="rgb(247,192,245)" stop-opacity="0.44999998807907104"></stop><stop offset="100%" stop-color="rgb(254,204,255)" stop-opacity="0"></stop></linearGradient><linearGradient id="__lottie_element_73" spreadMethod="pad" gradientUnits="userSpaceOnUse"><stop></stop><stop></stop><stop></stop><stop></stop><stop></stop><stop></stop><stop></stop><stop></stop><stop></stop></linearGradient><linearGradient id="__lottie_element_77" spreadMethod="pad" gradientUnits="userSpaceOnUse" x1="-2.5840001106262207" y1="63.12799835205078" x2="-0.28600001335144043" y2="-61.722999572753906"><stop offset="0%" stop-color="rgb(196,147,90)"></stop><stop offset="12%" stop-color="rgb(164,115,59)"></stop><stop offset="23%" stop-color="rgb(133,83,28)"></stop><stop offset="40%" stop-color="rgb(133,83,28)"></stop><stop offset="57%" stop-color="rgb(133,83,28)"></stop><stop offset="71%" stop-color="rgb(162,112,56)"></stop><stop offset="85%" stop-color="rgb(191,141,84)"></stop><stop offset="93%" stop-color="rgb(222,175,114)"></stop><stop offset="100%" stop-color="rgb(252,209,144)"></stop></linearGradient><radialGradient id="__lottie_element_81" spreadMethod="pad" gradientUnits="userSpaceOnUse" cx="0" cy="-0.9620000123977661" r="61.61199951171875" fx="0" fy="-0.9620000123977661"><stop offset="76%" stop-color="rgb(233,195,247)" stop-opacity="0.6809999942779541"></stop><stop offset="88%" stop-color="rgb(230,185,246)" stop-opacity="0.7910000085830688"></stop><stop offset="100%" stop-color="rgb(227,176,245)" stop-opacity="0.8999999761581421"></stop></radialGradient><radialGradient id="__lottie_element_85" spreadMethod="pad" gradientUnits="userSpaceOnUse"><stop></stop><stop></stop><stop></stop></radialGradient><radialGradient id="__lottie_element_89" spreadMethod="pad" gradientUnits="userSpaceOnUse"><stop></stop><stop></stop><stop></stop></radialGradient><radialGradient id="__lottie_element_93" spreadMethod="pad" gradientUnits="userSpaceOnUse"><stop></stop><stop></stop><stop></stop></radialGradient><radialGradient id="__lottie_element_97" spreadMethod="pad" gradientUnits="userSpaceOnUse"><stop></stop><stop></stop><stop></stop></radialGradient><radialGradient id="__lottie_element_101" spreadMethod="pad" gradientUnits="userSpaceOnUse"><stop></stop><stop></stop><stop></stop></radialGradient><radialGradient id="__lottie_element_105" spreadMethod="pad" gradientUnits="userSpaceOnUse"><stop></stop><stop></stop><stop></stop></radialGradient><radialGradient id="__lottie_element_109" spreadMethod="pad" gradientUnits="userSpaceOnUse"><stop></stop><stop></stop><stop></stop></radialGradient><radialGradient id="__lottie_element_113" spreadMethod="pad" gradientUnits="userSpaceOnUse"><stop></stop><stop></stop><stop></stop></radialGradient><radialGradient id="__lottie_element_117" spreadMethod="pad" gradientUnits="userSpaceOnUse"><stop></stop><stop></stop><stop></stop></radialGradient><mask id="__lottie_element_119"><path fill="url(#__lottie_element_118)"></path></mask><radialGradient id="__lottie_element_118" spreadMethod="pad" gradientUnits="userSpaceOnUse"><stop stop-color="rgb(255,255,255)"></stop><stop stop-color="rgb(255,255,255)"></stop><stop stop-color="rgb(255,255,255)"></stop></radialGradient></defs><g clip-path="url(#__lottie_element_2)"><g style="display: none;"><g><path fill="url(#__lottie_element_117)" mask="url(#__lottie_element_119)"></path></g></g><g style="display: none;"><g><path fill="url(#__lottie_element_113)"></path></g><g><path></path><path stroke-linecap="butt" stroke-linejoin="miter" fill-opacity="0" stroke-miterlimit="4"></path></g></g><g style="display: none;"><g><path fill="url(#__lottie_element_109)"></path></g><g><path></path><path stroke-linecap="butt" stroke-linejoin="miter" fill-opacity="0" stroke-miterlimit="4"></path></g></g><g style="display: none;"><g><path fill="url(#__lottie_element_105)"></path></g><g><path></path><path stroke-linecap="butt" stroke-linejoin="miter" fill-opacity="0" stroke-miterlimit="4"></path></g></g><g style="display: none;"><g><path fill="url(#__lottie_element_101)"></path></g><g><path></path><path stroke-linecap="butt" stroke-linejoin="miter" fill-opacity="0" stroke-miterlimit="4"></path></g></g><g style="display: none;"><g><path fill="url(#__lottie_element_97)"></path></g><g><path></path><path stroke-linecap="butt" stroke-linejoin="miter" fill-opacity="0" stroke-miterlimit="4"></path></g></g><g style="display: none;"><g><path fill="url(#__lottie_element_93)"></path></g><g><path></path><path stroke-linecap="butt" stroke-linejoin="miter" fill-opacity="0" stroke-miterlimit="4"></path></g></g><g style="display: none;"><g><path fill="url(#__lottie_element_89)"></path></g><g><path></path><path stroke-linecap="butt" stroke-linejoin="miter" fill-opacity="0" stroke-miterlimit="4"></path></g></g><g style="display: none;"><g><path fill="url(#__lottie_element_85)"></path></g><g><path></path><path stroke-linecap="butt" stroke-linejoin="miter" fill-opacity="0" stroke-miterlimit="4"></path></g></g><g style="display: block;" transform="matrix(1.090000033378601,0,0,1.090000033378601,-23.040008544921875,-23.03999137878418)" opacity="1"><g opacity="1" transform="matrix(1,0,0,1,256,91.96199798583984)"><g opacity="1" transform="matrix(1,0,0,1,0,0)"><path fill="url(#__lottie_element_81)" fill-opacity="1" d=" M80.88099670410156,-2.5369999408721924 C80.88099670410156,-19.03499984741211 44.66899871826172,-32.409000396728516 0,-32.409000396728516 C-44.66899871826172,-32.409000396728516 -80.88099670410156,-19.03499984741211 -80.88099670410156,-2.5369999408721924 C-80.88099670410156,-2.5369999408721924 -80.88099670410156,32.409000396728516 -80.88099670410156,32.409000396728516 C-80.88099670410156,15.91100025177002 -44.66899871826172,2.5369999408721924 0,2.5369999408721924 C44.66899871826172,2.5369999408721924 80.88099670410156,15.91100025177002 80.88099670410156,32.409000396728516 C80.88099670410156,32.409000396728516 80.88099670410156,-2.5369999408721924 80.88099670410156,-2.5369999408721924z"></path></g></g><g opacity="1" transform="matrix(1,0,0,1,256,81.47699737548828)"><path stroke-linecap="round" stroke-linejoin="round" fill-opacity="0" stroke="rgb(231,153,229)" stroke-opacity="1" stroke-width="8" d=" M-52.34000015258789,7.948999881744385 C-52.34000015258789,-0.8309999704360962 -28.906999588012695,-7.948999881744385 0,-7.948999881744385 C28.906999588012695,-7.948999881744385 52.34000015258789,-0.8309999704360962 52.34000015258789,7.948999881744385"></path></g><g opacity="1" transform="matrix(1,0,0,1,0,0)"><g opacity="1" transform="matrix(1,0,0,1,256,74.48899841308594)"><path stroke-linecap="round" stroke-linejoin="round" fill-opacity="0" stroke="rgb(231,153,229)" stroke-opacity="1" stroke-width="8" d=" M-80.88099670410156,14.935999870300293 C-80.88099670410156,-1.562000036239624 -44.66899871826172,-14.935999870300293 0,-14.935999870300293 C44.66899871826172,-14.935999870300293 80.88099670410156,-1.562000036239624 80.88099670410156,14.935999870300293"></path></g><g opacity="1" transform="matrix(1,0,0,1,256,109.43599700927734)"><path stroke-linecap="round" stroke-linejoin="round" fill-opacity="0" stroke="rgb(217,141,215)" stroke-opacity="1" stroke-width="8" d=" M-80.88099670410156,14.935999870300293 C-80.88099670410156,-1.562000036239624 -44.66899871826172,-14.935999870300293 0,-14.935999870300293 C44.66899871826172,-14.935999870300293 80.88099670410156,-1.562000036239624 80.88099670410156,14.935999870300293"></path></g></g></g><g style="display: block;" transform="matrix(1.090000033378601,0,0,1.090000033378601,-23.040008544921875,-23.03999137878418)" opacity="1"><g opacity="1" transform="matrix(1,0,0,1,256.5840148925781,110.87200164794922)"><path fill="url(#__lottie_element_77)" fill-opacity="1" d=" M43.237998962402344,-20.579999923706055 C45.97800064086914,-34.47800064086914 49.47999954223633,-52.702999114990234 49.47999954223633,-54.39799880981445 C49.47999954223633,-56.09299850463867 34.755001068115234,-65.90399932861328 -0.5699999928474426,-65.90399932861328 C-35.89500045776367,-65.90399932861328 -47.257999420166016,-56.54899978637695 -49.005001068115234,-55.569000244140625 C-50.75199890136719,-54.5890007019043 -47.345001220703125,-42.99700164794922 -44.33700180053711,-20.579999923706055 C-41.32899856567383,1.8370000123977661 -35.60499954223633,44.0989990234375 -34.85599899291992,51.93899917602539 C-34.106998443603516,59.77899932861328 -16.3439998626709,65.90399932861328 -0.6499999761581421,65.90399932861328 C15.043999671936035,65.90399932861328 30.013999938964844,59.04399871826172 31.011999130249023,52.91899871826172 C32.0099983215332,46.79399871826172 40.49800109863281,-6.682000160217285 43.237998962402344,-20.579999923706055z"></path><path stroke-linecap="round" stroke-linejoin="round" fill-opacity="0" stroke="rgb(133,83,28)" stroke-opacity="1" stroke-width="8" d=" M43.237998962402344,-20.579999923706055 C45.97800064086914,-34.47800064086914 49.47999954223633,-52.702999114990234 49.47999954223633,-54.39799880981445 C49.47999954223633,-56.09299850463867 34.755001068115234,-65.90399932861328 -0.5699999928474426,-65.90399932861328 C-35.89500045776367,-65.90399932861328 -47.257999420166016,-56.54899978637695 -49.005001068115234,-55.569000244140625 C-50.75199890136719,-54.5890007019043 -47.345001220703125,-42.99700164794922 -44.33700180053711,-20.579999923706055 C-41.32899856567383,1.8370000123977661 -35.60499954223633,44.0989990234375 -34.85599899291992,51.93899917602539 C-34.106998443603516,59.77899932861328 -16.3439998626709,65.90399932861328 -0.6499999761581421,65.90399932861328 C15.043999671936035,65.90399932861328 30.013999938964844,59.04399871826172 31.011999130249023,52.91899871826172 C32.0099983215332,46.79399871826172 40.49800109863281,-6.682000160217285 43.237998962402344,-20.579999923706055z"></path></g><g opacity="1" transform="matrix(1,0,0,1,256.3399963378906,64.88600158691406)"><path fill="rgb(251,208,143)" fill-opacity="1" d=" M-45.191001892089844,-6.833000183105469 C-45.191001892089844,-6.833000183105469 -31.510000228881836,-0.23600000143051147 -0.3400000035762787,-0.47099998593330383 C30.829999923706055,-0.7059999704360962 45.191001892089844,-7.216000080108643 45.191001892089844,-7.216000080108643 C45.191001892089844,-7.216000080108643 34.46799850463867,8.390999794006348 -1.7230000495910645,7.145999908447266 C-37.91400146484375,5.901000022888184 -45.191001892089844,-6.833000183105469 -45.191001892089844,-6.833000183105469z"></path></g><g opacity="1" transform="matrix(1,0,0,1,256.17498779296875,64.41600036621094)"><path stroke-linecap="round" stroke-linejoin="round" fill-opacity="0" stroke="rgb(176,112,40)" stroke-opacity="1" stroke-width="8" d=" M-48.59600067138672,-9.11299991607666 C-52.62200164794922,-1.5980000495910645 -33.88100051879883,9.11299991607666 0.40799999237060547,9.11299991607666 C34.696998596191406,9.11299991607666 50.98400115966797,-2.4749999046325684 48.96799850463867,-9.11299991607666"></path></g><g opacity="1" transform="matrix(1,0,0,1,232.45599365234375,84.72699737548828)"><path fill="rgb(140,88,30)" fill-opacity="1" d=" M-3.625999927520752,-4.110000133514404 C-9.72599983215332,-8.177000045776367 -10.774999618530273,6.357999801635742 1.9910000562667847,4.697999954223633 C14.756999969482422,3.0380001068115234 4.416999816894531,1.2519999742507935 -3.625999927520752,-4.110000133514404z"></path></g><g opacity="1" transform="matrix(1,0,0,1,262.1969909667969,86.51499938964844)"><path fill="rgb(140,88,30)" fill-opacity="1" d=" M-1.1970000267028809,-3.2170000076293945 C5.228000164031982,-4.269000053405762 7.994999885559082,1.1330000162124634 0.07999999821186066,3.0429999828338623 C-7.835000038146973,4.953000068664551 -4.861000061035156,-2.617000102996826 -1.1970000267028809,-3.2170000076293945z"></path></g><g opacity="1" transform="matrix(1,0,0,1,285.1029968261719,88.89199829101562)"><path fill="rgb(140,88,30)" fill-opacity="1" d=" M2.4509999752044678,-8.996000289916992 C-2.006999969482422,-8.446999549865723 2.9609999656677246,1.1720000505447388 -4.442999839782715,3.3420000076293945 C-11.847000122070312,5.51200008392334 -3.931999921798706,12.406000137329102 2.4509999752044678,7.044000148773193 C8.833999633789062,1.6820000410079956 9.345000267028809,-9.845000267028809 2.4509999752044678,-8.996000289916992z"></path></g></g><g style="display: none;"><g><path fill="url(#__lottie_element_73)"></path><path stroke-linecap="round" stroke-linejoin="round" fill-opacity="0"></path></g><g><path></path></g><g><path stroke-linecap="round" stroke-linejoin="round" fill-opacity="0"></path></g><g><path></path></g><g><path></path></g><g><path></path></g></g><g style="display: block;" transform="matrix(1.090000033378601,0,0,1.090000033378601,-23.040008544921875,-23.03999137878418)" opacity="1"><g opacity="1" transform="matrix(1,0,0,1,256.49200439453125,165.27699279785156)"><g opacity="1" transform="matrix(1,0,0,1,0,0)"><path fill="url(#__lottie_element_18)" fill-opacity="1" d=" M-68.48200225830078,24.52899932861328 C-57.81700134277344,28.573999404907227 -52.83300018310547,16.575000762939453 -52.83300018310547,-3.0850000381469727 C-52.83300018310547,-22.7450008392334 -52.83300018310547,-75.85099792480469 -52.83300018310547,-75.85099792480469 C-52.83300018310547,-75.85099792480469 -43.388999938964844,-59.95399856567383 0.09099999815225601,-59.95399856567383 C43.57099914550781,-59.95399856567383 51.847999572753906,-75.85099792480469 51.847999572753906,-75.85099792480469 C51.847999572753906,-75.85099792480469 51.847999572753906,-18.405000686645508 51.847999572753906,-4.10699987411499 C51.847999572753906,10.190999984741211 52.797000885009766,28.625 68.48200225830078,24.259000778198242 C68.48200225830078,24.259000778198242 21.59000015258789,43.979000091552734 0.09099999815225601,75.85099792480469 C-22.173999786376953,44.91400146484375 -68.48200225830078,24.52899932861328 -68.48200225830078,24.52899932861328z"></path></g></g><g opacity="0.17" transform="matrix(1,0,0,1,254.61700439453125,168.1929931640625)"><path fill="url(#__lottie_element_19)" fill-opacity="1" d=" M50.957000732421875,-6.001999855041504 C50.957000732421875,-20.54400062561035 50.957000732421875,-73.69400024414062 50.957000732421875,-73.69400024414062 C33.23400115966797,-65.55599975585938 33.70199966430664,-33.321998596191406 33.70199966430664,-7.2789998054504395 C33.70199966430664,18.763999938964844 18.63800048828125,42.763999938964844 0,42.763999938964844 C-18.63800048828125,42.763999938964844 -33.70199966430664,18.763999938964844 -33.70199966430664,-7.2789998054504395 C-33.70199966430664,-33.321998596191406 -33.23400115966797,-65.55599975585938 -50.957000732421875,-73.69400024414062 C-50.957000732421875,-73.69400024414062 -50.957000732421875,-20.54400062561035 -50.957000732421875,-6.001999855041504 C-50.957000732421875,8.539999961853027 -53.617000579833984,17.56800079345703 -62.29800033569336,21.996000289916992 C-62.29800033569336,21.996000289916992 -21.957000732421875,42.50899887084961 0,73.69400024414062 C16.85099983215332,49.91299819946289 62.29800033569336,21.996000289916992 62.29800033569336,21.996000289916992 C53.617000579833984,17.56800079345703 50.957000732421875,8.539999961853027 50.957000732421875,-6.001999855041504z"></path></g><g opacity="1" transform="matrix(1,0,0,1,256.49200439453125,165.27699279785156)"><g opacity="1" transform="matrix(1,0,0,1,0,0)"><path fill="url(#__lottie_element_20)" fill-opacity="1" d=" M-68.48200225830078,24.52899932861328 C-57.81700134277344,28.573999404907227 -52.83300018310547,16.575000762939453 -52.83300018310547,-3.0850000381469727 C-52.83300018310547,-22.7450008392334 -52.83300018310547,-75.85099792480469 -52.83300018310547,-75.85099792480469 C-52.83300018310547,-75.85099792480469 -47.82500076293945,-52.763999938964844 -0.12800000607967377,-52.763999938964844 C47.569000244140625,-52.763999938964844 51.847999572753906,-75.85099792480469 51.847999572753906,-75.85099792480469 C51.847999572753906,-75.85099792480469 51.847999572753906,-18.405000686645508 51.847999572753906,-4.10699987411499 C51.847999572753906,10.190999984741211 52.797000885009766,28.625 68.48200225830078,24.259000778198242 C68.48200225830078,24.259000778198242 21.59000015258789,43.979000091552734 0.09099999815225601,75.85099792480469 C-22.173999786376953,44.91400146484375 -68.48200225830078,24.52899932861328 -68.48200225830078,24.52899932861328z"></path></g></g><g opacity="1" transform="matrix(1,0,0,1,0,0)"><g opacity="1" transform="matrix(1,0,0,1,316.6579895019531,139.8070068359375)"><path stroke-linecap="round" stroke-linejoin="round" fill-opacity="0" stroke="rgb(231,153,229)" stroke-opacity="1" stroke-width="8" d=" M-8.317000389099121,-50.38199996948242 C-8.317000389099121,-50.38199996948242 -8.317000389099121,7.065000057220459 -8.317000389099121,21.363000869750977 C-8.317000389099121,35.6609992980957 -7.368000030517578,54.095001220703125 8.317000389099121,49.729000091552734"></path></g><g opacity="1" transform="matrix(1,0,0,1,195.8350067138672,140.0070037841797)"><path stroke-linecap="round" stroke-linejoin="round" fill-opacity="0" stroke="rgb(231,153,229)" stroke-opacity="1" stroke-width="8" d=" M-7.824999809265137,49.79899978637695 C2.8399999141693115,53.84400177001953 7.824999809265137,41.845001220703125 7.824999809265137,22.184999465942383 C7.824999809265137,2.5250000953674316 7.824999809265137,-50.58100128173828 7.824999809265137,-50.58100128173828"></path></g></g><g opacity="1" transform="matrix(1,0,0,1,0,0)"><g opacity="1" transform="matrix(1,0,0,1,308.3590087890625,127.35099792480469)"><path stroke-linecap="round" stroke-linejoin="round" fill-opacity="0" stroke="rgb(202,92,209)" stroke-opacity="1" stroke-width="8" d=" M-0.017999999225139618,-37.92599868774414 C-0.017999999225139618,-37.92599868774414 -0.017999999225139618,19.520999908447266 -0.017999999225139618,33.819000244140625 C-0.017999999225139618,35.159000396728516 -0.009999999776482582,36.53499984741211 0.017999999225139618,37.92599868774414"></path></g><g opacity="1" transform="matrix(1,0,0,1,203.66000366210938,125.80899810791016)"><path stroke-linecap="round" stroke-linejoin="round" fill-opacity="0" stroke="rgb(202,92,209)" stroke-opacity="1" stroke-width="8" d=" M0,36.382999420166016 C0,16.722999572753906 0,-36.382999420166016 0,-36.382999420166016"></path></g></g></g><g style="display: block;" transform="matrix(1.090000033378601,0,0,1.090000033378601,-23.040008544921875,-23.03999137878418)" opacity="1"><g opacity="1" transform="matrix(1,0,0,1,254.85400390625,181.98399353027344)"><path stroke-linecap="round" stroke-linejoin="round" fill-opacity="0" stroke="rgb(163,78,157)" stroke-opacity="1" stroke-width="8" d=" M59.39099884033203,-6.770999908447266 C48.35300064086914,0.3779999911785126 -10.880000114440918,23.356000900268555 -59.39099884033203,-8.04800033569336"></path></g><g opacity="1" transform="matrix(1,0,0,1,255.5399932861328,168.16099548339844)"><path stroke-linecap="round" stroke-linejoin="round" fill-opacity="0" stroke="rgb(163,78,157)" stroke-opacity="1" stroke-width="8" d=" M59.07699966430664,1.3220000267028809 C47.42499923706055,7.419000148773193 -13.680999755859375,24.81599998474121 -59.07699966430664,-10.942999839782715"></path></g></g><g style="display: block;" transform="matrix(1.090000033378601,0,0,1.090000033378601,-23.040008544921875,-23.03999137878418)" opacity="1"><g opacity="1" transform="matrix(1,0,0,1,256,121.83499908447266)"><path fill="url(#__lottie_element_65)" fill-opacity="1" d=" M-80.88099670410156,2.5369999408721924 C-80.88099670410156,19.03499984741211 -44.66899871826172,32.409000396728516 0,32.409000396728516 C44.66899871826172,32.409000396728516 80.88099670410156,19.03499984741211 80.88099670410156,2.5369999408721924 C80.88099670410156,2.5369999408721924 80.88099670410156,-32.409000396728516 80.88099670410156,-32.409000396728516 C80.88099670410156,-15.91100025177002 44.66899871826172,-2.5369999408721924 0,-2.5369999408721924 C-44.66899871826172,-2.5369999408721924 -80.88099670410156,-15.91100025177002 -80.88099670410156,-32.409000396728516 C-80.88099670410156,-32.409000396728516 -80.88099670410156,2.5369999408721924 -80.88099670410156,2.5369999408721924z"></path></g><g opacity="1" transform="matrix(1,0,0,1,256,104.36199951171875)"><g opacity="1" transform="matrix(1,0,0,1,0,0)"><path fill="url(#__lottie_element_66)" fill-opacity="1" d=" M80.88099670410156,-14.935999870300293 C80.88099670410156,1.562000036239624 44.66899871826172,14.935999870300293 0,14.935999870300293 C-44.66899871826172,14.935999870300293 -80.88099670410156,1.562000036239624 -80.88099670410156,-14.935999870300293 C-80.88099670410156,-14.935999870300293 -52.34000015258789,-14.935999870300293 -52.34000015258789,-14.935999870300293 C-52.34000015258789,-6.156000137329102 -28.906999588012695,0.9610000252723694 0,0.9610000252723694 C28.906999588012695,0.9610000252723694 52.34000015258789,-6.156000137329102 52.34000015258789,-14.935999870300293 C52.34000015258789,-14.935999870300293 80.88099670410156,-14.935999870300293 80.88099670410156,-14.935999870300293z"></path></g></g><g opacity="1" transform="matrix(1,0,0,1,256,97.3740005493164)"><path stroke-linecap="round" stroke-linejoin="round" fill-opacity="0" stroke="rgb(202,92,209)" stroke-opacity="1" stroke-width="8" d=" M52.34000015258789,-7.948999881744385 C52.34000015258789,0.8309999704360962 28.906999588012695,7.948999881744385 0,7.948999881744385 C-28.906999588012695,7.948999881744385 -52.34000015258789,0.8309999704360962 -52.34000015258789,-7.948999881744385"></path></g><g opacity="1" transform="matrix(1,0,0,1,0,0)"><g opacity="1" transform="matrix(1,0,0,1,256,139.30799865722656)"><path stroke-linecap="round" stroke-linejoin="round" fill-opacity="0" stroke="rgb(217,141,215)" stroke-opacity="1" stroke-width="8" d=" M-80.88099670410156,-14.935999870300293 C-80.88099670410156,1.562000036239624 -44.66899871826172,14.935999870300293 0,14.935999870300293 C44.66899871826172,14.935999870300293 80.88099670410156,1.562000036239624 80.88099670410156,-14.935999870300293"></path></g><g opacity="1" transform="matrix(1,0,0,1,336.8810119628906,106.89900207519531)"><path stroke-linecap="round" stroke-linejoin="round" fill-opacity="0" stroke="rgb(247,151,245)" stroke-opacity="1" stroke-width="8" d=" M0,17.472999572753906 C0,17.472999572753906 0,-17.472999572753906 0,-17.472999572753906"></path></g><g opacity="1" transform="matrix(1,0,0,1,175.11900329589844,106.89900207519531)"><path stroke-linecap="round" stroke-linejoin="round" fill-opacity="0" stroke="rgb(247,151,245)" stroke-opacity="1" stroke-width="8" d=" M0,-17.472999572753906 C0,-17.472999572753906 0,17.472999572753906 0,17.472999572753906"></path></g><g opacity="1" transform="matrix(1,0,0,1,256,104.36199951171875)"><path stroke-linecap="round" stroke-linejoin="round" fill-opacity="0" stroke="rgb(249,230,255)" stroke-opacity="1" stroke-width="8" d=" M80.88099670410156,-14.935999870300293 C80.88099670410156,1.562000036239624 44.66899871826172,14.935999870300293 0,14.935999870300293 C-44.66899871826172,14.935999870300293 -80.88099670410156,1.562000036239624 -80.88099670410156,-14.935999870300293"></path></g></g></g><g style="display: block;" transform="matrix(1.090000033378601,0,0,1.090000033378601,-23.03999137878418,-23.03999137878418)" opacity="1"><g opacity="0.5" transform="matrix(1,0,0,1,255.7220001220703,317.1709899902344)"><path fill="url(#__lottie_element_60)" fill-opacity="1" d=" M-14.565999984741211,-91.30899810791016 C-50.928001403808594,-114.63999938964844 -96.37799835205078,-108.69300079345703 -112.90899658203125,-75.28299713134766 C-129.44000244140625,-41.87300109863281 -69.69400024414062,94.42500305175781 -4.204999923706055,93.87200164794922 C61.284000396728516,93.31900024414062 126.87300109863281,-20.301000595092773 104.03600311279297,-72.06600189208984 C81.1989974975586,-123.83100128173828 14.864999771118164,-90.427001953125 14.864999771118164,-90.427001953125 C14.864999771118164,-90.427001953125 71.77100372314453,-151.78799438476562 126.08100128173828,-120.76699829101562 C180.39100646972656,-89.74600219726562 190.0449981689453,-9.312999725341797 137.1540069580078,43.72600173950195 C84.26300048828125,96.76499938964844 45.42100143432617,125.71199798583984 -2.7249999046325684,129.4080047607422 C-48.81700134277344,132.94700622558594 -132.1199951171875,54.61800003051758 -153.1840057373047,23.999000549316406 C-174.2480010986328,-6.619999885559082 -192.11399841308594,-89.87100219726562 -124.2020034790039,-119.48899841308594 C-56.290000915527344,-149.10699462890625 -14.565999984741211,-91.30899810791016 -14.565999984741211,-91.30899810791016z"></path></g><g opacity="1" transform="matrix(1,0,0,1,256,316.9119873046875)"><path fill="url(#__lottie_element_61)" fill-opacity="1" d=" M168.01499938964844,-57.78300094604492 C157.38699340820312,-123.5989990234375 87.072998046875,-141.58599853515625 51.507999420166016,-118.69400024414062 C15.942999839782715,-95.8010025024414 0,-74.13500213623047 0,-74.13500213623047 C0,-74.13500213623047 -15.942999839782715,-95.8010025024414 -51.507999420166016,-118.69400024414062 C-87.072998046875,-141.58599853515625 -157.38499450683594,-123.5989990234375 -168.01400756835938,-57.78300094604492 C-178.64300537109375,8.032999992370605 -145.52999877929688,34.19599914550781 -109.14800262451172,68.53500366210938 C-94.60800170898438,82.25800323486328 -76.14900207519531,98.13700103759766 -58.47100067138672,112.25499725341797 C-31.913999557495117,133.46400451660156 31.915000915527344,133.46299743652344 58.47200012207031,112.25399780273438 C76.1500015258789,98.13600158691406 94.60800170898438,82.25800323486328 109.14800262451172,68.53500366210938 C145.531005859375,34.19599914550781 178.64300537109375,8.032999992370605 168.01499938964844,-57.78300094604492z"></path></g></g><g style="display: block;" transform="matrix(1.090000033378601,0,0,1.090000033378601,-23.03999137878418,-23.03999137878418)" opacity="1"><g opacity="1" transform="matrix(1,0,0,1,256.07501220703125,448.1570129394531)"><path fill="url(#__lottie_element_56)" fill-opacity="1" d=" M52.768001556396484,-13.36400032043457 C52.768001556396484,-13.36400032043457 33.457000732421875,-1.5460000038146973 -0.07500000298023224,-1.5460000038146973 C-33.606998443603516,-1.5460000038146973 -52.91400146484375,-13.36400032043457 -52.91400146484375,-13.36400032043457 C-58.02299880981445,-16.698999404907227 -72.97000122070312,-2.7219998836517334 -65.11599731445312,2.2170000076293945 C-65.11599731445312,2.2170000076293945 -41.35100173950195,14.03499984741211 -0.07599999755620956,14.03499984741211 C41.19900131225586,14.03499984741211 64.97000122070312,2.2170000076293945 64.97000122070312,2.2170000076293945 C72.0250015258789,-0.032999999821186066 62.058998107910156,-17.658000946044922 52.768001556396484,-13.36400032043457z"></path></g><g opacity="1" transform="matrix(1,0,0,1,256.5419921875,449.2969970703125)"><path fill="rgb(235,222,255)" fill-opacity="1" d=" M-65.58300018310547,-2.934999942779541 C-65.29499816894531,-4.745999813079834 -55.2869987487793,-12.892999649047852 -55.2869987487793,-12.892999649047852 C-55.2869987487793,-12.892999649047852 -56.6349983215332,-6.855999946594238 -53.88600158691406,-3.427999973297119 C-51.137001037597656,0 -19.67799949645996,5.918000221252441 -0.5400000214576721,6.000999927520752 C28.840999603271484,6.129000186920166 65.60700225830078,-1.1399999856948853 65.60700225830078,-1.1399999856948853 C65.60700225830078,-1.1399999856948853 32.672000885009766,12.892999649047852 0.11800000071525574,12.892999649047852 C-32.43600082397461,12.892999649047852 -66.64399719238281,3.742000102996826 -65.58300018310547,-2.934999942779541z"></path></g><g opacity="1" transform="matrix(1,0,0,1,256.07501220703125,442.24798583984375)"><path stroke-linecap="round" stroke-linejoin="round" fill-opacity="0" stroke="rgb(202,92,209)" stroke-opacity="1" stroke-width="8" d=" M64.97000122070312,8.12600040435791 C72.0250015258789,5.875999927520752 62.058998107910156,-11.74899959564209 52.768001556396484,-7.454999923706055 C52.768001556396484,-7.454999923706055 33.457000732421875,4.363999843597412 -0.07500000298023224,4.363999843597412 C-33.606998443603516,4.363999843597412 -52.91400146484375,-7.454999923706055 -52.91400146484375,-7.454999923706055 C-58.02299880981445,-10.789999961853027 -72.97000122070312,3.187000036239624 -65.11599731445312,8.12600040435791"></path></g><g opacity="1" transform="matrix(1,0,0,1,256.00201416015625,456.2820129394531)"><path stroke-linecap="round" stroke-linejoin="round" fill-opacity="0" stroke="rgb(173,52,165)" stroke-opacity="1" stroke-width="8" d=" M-65.04299926757812,-5.908999919891357 C-65.04299926757812,-5.908999919891357 -41.27799987792969,5.908999919891357 -0.003000000026077032,5.908999919891357 C41.27199935913086,5.908999919891357 65.04299926757812,-5.908999919891357 65.04299926757812,-5.908999919891357"></path></g></g><g style="display: block;" transform="matrix(1.090000033378601,0,0,1.090000033378601,-23.03999137878418,-23.03999137878418)" opacity="1"><g opacity="1" transform="matrix(1,0,0,1,218.28199768066406,289.17401123046875)"><path fill="url(#__lottie_element_51)" fill-opacity="1" d=" M-113.41000366210938,-36.47200012207031 C-102.25900268554688,-73.11100006103516 -34.64400100708008,-26.742000579833984 9.526000022888184,-12.991999626159668 C53.69599914550781,0.7580000162124634 115.55599975585938,-29.69499969482422 115.55599975585938,-29.69499969482422 C115.55599975585938,-29.69499969482422 107.18599700927734,29.332000732421875 15.270999908447266,46.983001708984375 C-76.64399719238281,64.63400268554688 -126.81400299072266,7.571000099182129 -113.41000366210938,-36.47200012207031z"></path></g><g opacity="1" transform="matrix(1,0,0,1,218.28199768066406,289.17401123046875)"><path stroke-linecap="round" stroke-linejoin="round" fill-opacity="0" stroke="rgb(252,101,194)" stroke-opacity="1" stroke-width="8" d=" M48.35100173950195,37.72800064086914 C38.74599838256836,41.4109992980957 27.783000946044922,44.58000183105469 15.270999908447266,46.983001708984375 C-76.64399719238281,64.63400268554688 -126.81400299072266,7.571000099182129 -113.41000366210938,-36.47200012207031 C-113.41000366210938,-36.47200012207031 -113.41000366210938,-36.47200012207031 -113.41000366210938,-36.47200012207031 C-102.25900268554688,-73.11100006103516 -34.64400100708008,-26.742000579833984 9.526000022888184,-12.991999626159668 C53.69599914550781,0.7580000162124634 115.55599975585938,-29.69499969482422 115.55599975585938,-29.69499969482422 C115.55599975585938,-29.69499969482422 109.30999755859375,14.355999946594238 48.35100173950195,37.72800064086914"></path></g><g opacity="1" transform="matrix(1,0,0,1,255.7429962158203,336.1570129394531)"><path fill="url(#__lottie_element_52)" fill-opacity="1" d=" M-150.87100219726562,-83.45500183105469 C-159.67999267578125,-51.667999267578125 -104.14800262451172,-17.200000762939453 -45.551998138427734,-22.652999877929688 C13.043999671936035,-28.106000900268555 43.23400115966797,-58.50199890136719 76.33999633789062,-75.8489990234375 C108.56500244140625,-92.73400115966797 146.42100524902344,-102.6729965209961 153.21400451660156,-73.66500091552734 C154.0070037841797,-68.15699768066406 157.80999755859375,-56.409000396728516 151.28599548339844,-31.665000915527344 C144.76199340820312,-6.921000003814697 125.38099670410156,17.81399917602539 94.10199737548828,44.54499816894531 C81.60299682617188,55.22700119018555 65.73100280761719,67.58100128173828 50.53099822998047,78.56800079345703 C27.697999954223633,95.072998046875 -27.18400001525879,95.072998046875 -50.016998291015625,78.56800079345703 C-65.21700286865234,67.58100128173828 -81.08599853515625,55.224998474121094 -93.58799743652344,44.54499816894531 C-124.86900329589844,17.82200050354004 -152.40199279785156,-15.668000221252441 -154.36099243164062,-42.731998443603516 C-156.32000732421875,-69.7959976196289 -150.87100219726562,-83.45500183105469 -150.87100219726562,-83.45500183105469z"></path></g><g opacity="1" transform="matrix(1,0,0,1,255.7429962158203,336.1570129394531)"><path stroke-linecap="round" stroke-linejoin="round" fill-opacity="0" stroke="rgb(199,0,140)" stroke-opacity="1" stroke-width="8" d=" M153.4669952392578,-72.15399932861328 C154.56900024414062,-66.10900115966797 157.26600646972656,-54.34700012207031 151.28599548339844,-31.665000915527344 C144.76199340820312,-6.921000003814697 125.38099670410156,17.81399917602539 94.10199737548828,44.54499816894531 C81.60299682617188,55.22700119018555 65.73100280761719,67.58100128173828 50.53099822998047,78.56800079345703 C27.697999954223633,95.072998046875 -27.18400001525879,95.072998046875 -50.016998291015625,78.56800079345703 C-65.21700286865234,67.58100128173828 -81.08599853515625,55.224998474121094 -93.58799743652344,44.54499816894531 C-124.86900329589844,17.82200050354004 -152.40199279785156,-15.668000221252441 -154.36099243164062,-42.731998443603516 C-155.36000061035156,-56.53200149536133 -154.43299865722656,-66.84700012207031 -153.28399658203125,-73.64299774169922"></path></g><g opacity="1" transform="matrix(1,0,0,1,255.7429962158203,336.1570129394531)"><path stroke-linecap="round" stroke-linejoin="round" fill-opacity="0" stroke="rgb(252,101,194)" stroke-opacity="1" stroke-width="8" d=" M-151.31100463867188,-81.60399627685547 C-157.52699279785156,-50.34700012207031 -103.01300048828125,-17.305999755859375 -45.551998138427734,-22.652999877929688 C13.043999671936035,-28.106000900268555 43.23400115966797,-58.50199890136719 76.33999633789062,-75.8489990234375 C108.56500244140625,-92.73400115966797 146.42100524902344,-102.6729965209961 153.21400451660156,-73.66500091552734 C153.39500427246094,-72.40699768066406 153.73300170898438,-70.82499694824219 154.06900024414062,-68.83599853515625"></path></g><g opacity="1" transform="matrix(1,0,0,1,256,403.90301513671875)"><path stroke-linecap="round" stroke-linejoin="round" fill-opacity="0" stroke="rgb(94,0,67)" stroke-opacity="1" stroke-width="8" d=" M93.84500122070312,-23.201000213623047 C81.34600067138672,-12.519000053405762 65.4739990234375,-0.16500000655651093 50.27399826049805,10.821999549865723 C27.44099998474121,27.32699966430664 -27.440000534057617,27.32699966430664 -50.27299880981445,10.821999549865723 C-65.4729995727539,-0.16500000655651093 -81.34300231933594,-12.520999908447266 -93.84500122070312,-23.201000213623047"></path></g></g><g style="display: block;" transform="matrix(1.090000033378601,0,0,1.090000033378601,-23.03999137878418,-23.03999137878418)" opacity="1"><g opacity="1" transform="matrix(1,0,0,1,256,316.9119873046875)"><path fill="url(#__lottie_element_46)" fill-opacity="1" d=" M168.01499938964844,-57.78300094604492 C157.38699340820312,-123.5989990234375 87.072998046875,-141.58599853515625 51.507999420166016,-118.69400024414062 C15.942999839782715,-95.8010025024414 0,-74.13500213623047 0,-74.13500213623047 C0,-74.13500213623047 -15.942999839782715,-95.8010025024414 -51.507999420166016,-118.69400024414062 C-87.072998046875,-141.58599853515625 -157.38499450683594,-123.5989990234375 -168.01400756835938,-57.78300094604492 C-178.64300537109375,8.032999992370605 -145.52999877929688,34.19599914550781 -109.14800262451172,68.53500366210938 C-94.60800170898438,82.25800323486328 -76.14900207519531,98.13700103759766 -58.47100067138672,112.25499725341797 C-31.913999557495117,133.46400451660156 31.915000915527344,133.46299743652344 58.47200012207031,112.25399780273438 C76.1500015258789,98.13600158691406 94.60800170898438,82.25800323486328 109.14800262451172,68.53500366210938 C145.531005859375,34.19599914550781 178.64300537109375,8.032999992370605 168.01499938964844,-57.78300094604492z"></path></g><g opacity="1" transform="matrix(1,0,0,1,256,316.7019958496094)"><path fill="url(#__lottie_element_47)" fill-opacity="1" d=" M168.01499938964844,-57.78300094604492 C157.38699340820312,-123.5989990234375 87.072998046875,-141.58599853515625 51.507999420166016,-118.69400024414062 C15.942999839782715,-95.8010025024414 0,-74.13500213623047 0,-74.13500213623047 C0,-74.13500213623047 -15.942999839782715,-95.8010025024414 -51.507999420166016,-118.69400024414062 C-87.072998046875,-141.58599853515625 -157.38499450683594,-123.5989990234375 -168.01400756835938,-57.78300094604492 C-178.64300537109375,8.032999992370605 -145.52999877929688,34.19599914550781 -109.14800262451172,68.53500366210938 C-94.60800170898438,82.25800323486328 -76.14900207519531,98.13700103759766 -58.47100067138672,112.25499725341797 C-31.913999557495117,133.46400451660156 31.915000915527344,133.46299743652344 58.47200012207031,112.25399780273438 C76.1500015258789,98.13600158691406 94.60800170898438,82.25800323486328 109.14800262451172,68.53500366210938 C145.531005859375,34.19599914550781 178.64300537109375,8.032999992370605 168.01499938964844,-57.78300094604492z"></path></g></g><g style="display: block;" transform="matrix(1.090000033378601,0,0,1.090000033378601,-23.03999137878418,-23.03999137878418)" opacity="1"><g opacity="0.25" transform="matrix(1,0,0,1,162.26600646972656,310.5509948730469)"><path fill="url(#__lottie_element_42)" fill-opacity="1" d=" M38.797000885009766,-77.36900329589844 C-34.74800109863281,-25.0049991607666 47.61199951171875,83.9000015258789 59.23899841308594,99.67500305175781 C70.86599731445312,115.44999694824219 41.25199890136719,100.75499725341797 16.702999114990234,80.91500091552734 C-7.8460001945495605,61.07500076293945 -79.30999755859375,-14.581000328063965 -57.89400100708008,-68.62999725341797 C-36.47800064086914,-122.67900085449219 21.6200008392334,-112.19599914550781 38.797000885009766,-77.36900329589844z"></path></g></g><g style="display: block;" transform="matrix(1.090000033378601,0,0,1.090000033378601,-23.03999137878418,-23.03999137878418)" opacity="1"><g opacity="1" transform="matrix(1,0,0,1,144.8699951171875,266.0830078125)"><path fill="url(#__lottie_element_38)" fill-opacity="1" d=" M15.986000061035156,-56.58000183105469 C-28.58300018310547,-74.93900299072266 -69.11199951171875,28.2810001373291 -26.884000778198242,54.685001373291016 C15.343999862670898,81.08899688720703 83.9229965209961,-28.594999313354492 15.986000061035156,-56.58000183105469z"></path></g><g opacity="1" transform="matrix(1,0,0,1,126.66699981689453,253.00900268554688)"><path fill="rgb(255,255,255)" fill-opacity="1" d=" M9.32800006866455,-24.85300064086914 C-10.145000457763672,-34.7760009765625 -32.22700119018555,10.395999908447266 -14.105999946594238,23.868999481201172 C4.014999866485596,37.34199905395508 39.01100158691406,-9.72700023651123 9.32800006866455,-24.85300064086914z"></path></g><g opacity="1" transform="matrix(1,0,0,1,122.48500061035156,303.4519958496094)"><path fill="rgb(255,255,255)" fill-opacity="1" d=" M-3.693000078201294,-13.098999977111816 C-12.668000221252441,-10.687000274658203 -7.2170000076293945,14 2.309999942779541,13.404999732971191 C11.836999893188477,12.8100004196167 9.98799991607666,-16.774999618530273 -3.693000078201294,-13.098999977111816z"></path></g></g><g style="display: block;" transform="matrix(1.090000033378601,0,0,1.090000033378601,364.1105651855469,325.748046875)" opacity="0.52"><g opacity="1" transform="matrix(1,0,0,1,0,0)"><path fill="rgb(117,15,110)" fill-opacity="1" d=" M48.59700012207031,0 C48.59700012207031,28.783000946044922 26.84000015258789,52.117000579833984 0,52.117000579833984 C-26.84000015258789,52.117000579833984 -48.59700012207031,28.783000946044922 -48.59700012207031,0 C-48.59700012207031,-28.783000946044922 -26.84000015258789,-52.117000579833984 0,-52.117000579833984 C26.84000015258789,-52.117000579833984 48.59700012207031,-28.783000946044922 48.59700012207031,0z"></path></g></g><g style="display: block;" transform="matrix(1.090000033378601,0,0,1.090000033378601,256,322.3940734863281)" opacity="1"><g opacity="1" transform="matrix(1,0,0,1,0,0)"><path stroke-linecap="round" stroke-linejoin="round" fill-opacity="0" stroke="rgb(153,14,240)" stroke-opacity="0" stroke-width="8" d=" M170.031005859375,-58.47700119018555 C159.27499389648438,-125.08200073242188 88.11799621582031,-143.28500366210938 52.125999450683594,-120.11799621582031 C16.134000778198242,-96.94999694824219 0,-75.02400207519531 0,-75.02400207519531 C0,-75.02400207519531 -16.134000778198242,-96.94999694824219 -52.125999450683594,-120.11799621582031 C-88.11799621582031,-143.28500366210938 -159.27499389648438,-125.08200073242188 -170.031005859375,-58.47700119018555 C-180.78700256347656,8.128999710083008 -147.27699279785156,34.60499954223633 -110.45800018310547,69.35700225830078 C-95.74299621582031,83.24500274658203 -77.06400299072266,99.31400299072266 -59.17300033569336,113.60199737548828 C-32.29800033569336,135.06500244140625 32.29899978637695,135.06500244140625 59.17399978637695,113.60099792480469 C77.06400299072266,99.31300354003906 95.74299621582031,83.24500274658203 110.45800018310547,69.35700225830078 C147.27699279785156,34.60499954223633 180.78700256347656,8.128999710083008 170.031005859375,-58.47700119018555z"></path></g></g><g style="display: block;" transform="matrix(1.090000033378601,0,0,1.090000033378601,-23.03999137878418,-23.03999137878418)" opacity="1"><g opacity="1" transform="matrix(1,0,0,1,255.74600219726562,316.5979919433594)"><path stroke-linecap="round" stroke-linejoin="round" fill-opacity="0" stroke="rgb(249,230,255)" stroke-opacity="1" stroke-width="8" d=" M168.7259979248047,-65.11199951171875 C154.4709930419922,-126.27400207519531 86.89299774169922,-142.49600219726562 52.125999450683594,-120.11799621582031 C16.134000778198242,-96.94999694824219 0,-75.02400207519531 0,-75.02400207519531 C0,-75.02400207519531 -16.134000778198242,-96.94999694824219 -52.125999450683594,-120.11799621582031 C-88.11799621582031,-143.28500366210938 -159.27499389648438,-125.08200073242188 -170.031005859375,-58.47700119018555 C-170.031005859375,-58.47700119018555 -170.031005859375,-58.47700119018555 -170.031005859375,-58.47700119018555"></path></g><g opacity="1" transform="matrix(1,0,0,1,255.74600219726562,316.5979919433594)"><path stroke-linecap="round" stroke-linejoin="round" fill-opacity="0" stroke="rgb(231,153,228)" stroke-opacity="1" stroke-width="8" d=" M98.7229995727539,-128.9409942626953 C81.61499786376953,-131.26499938964844 64.71800231933594,-128.22300720214844 52.125999450683594,-120.11799621582031 C16.134000778198242,-96.94999694824219 0,-75.02400207519531 0,-75.02400207519531 C0,-75.02400207519531 -16.134000778198242,-96.94999694824219 -52.125999450683594,-120.11799621582031 C-63.970001220703125,-127.74199676513672 -79.62300109863281,-130.88600158691406 -95.6780014038086,-129.29800415039062"></path></g><g opacity="1" transform="matrix(1,0,0,1,255.74600219726562,316.5979919433594)"><path stroke-linecap="round" stroke-linejoin="round" fill-opacity="0" stroke="rgb(247,151,245)" stroke-opacity="1" stroke-width="8" d=" M-169.25900268554688,-62.683998107910156 C-169.54299926757812,-61.30400085449219 -169.80099487304688,-59.902000427246094 -170.031005859375,-58.47700119018555 C-180.78700256347656,8.128999710083008 -147.27699279785156,34.60499954223633 -110.45800018310547,69.35700225830078 C-95.74299621582031,83.24500274658203 -77.06400299072266,99.31400299072266 -59.17300033569336,113.60199737548828 C-32.29800033569336,135.06500244140625 32.29899978637695,135.06500244140625 59.17399978637695,113.60099792480469 C77.06400299072266,99.31300354003906 95.74299621582031,83.24500274658203 110.45800018310547,69.35700225830078 C147.27699279785156,34.60499954223633 180.78700256347656,8.128999710083008 170.031005859375,-58.47700119018555 C170.031005859375,-58.47700119018555 170.031005859375,-58.47700119018555 170.031005859375,-58.47700119018555 C169.91200256347656,-59.2130012512207 169.78599548339844,-59.94200134277344 169.6529998779297,-60.66600036621094"></path></g><g opacity="1" transform="matrix(1,0,0,1,255.74600219726562,316.5979919433594)"><path stroke-linecap="round" stroke-linejoin="round" fill-opacity="0" stroke="rgb(202,92,209)" stroke-opacity="1" stroke-width="8" d=" M-104.62699890136719,74.78500366210938 C-90.97699737548828,87.3270034790039 -74.7760009765625,101.14199829101562 -59.17300033569336,113.60199737548828 C-32.29800033569336,135.06500244140625 32.29899978637695,135.06500244140625 59.17399978637695,113.60099792480469 C74.2020034790039,101.5989990234375 89.78600311279297,88.34100341796875 103.11000061035156,76.17400360107422"></path></g><g opacity="1" transform="matrix(1,0,0,1,255.74600219726562,316.5979919433594)"><path stroke-linecap="round" stroke-linejoin="round" fill-opacity="0" stroke="rgb(173,52,165)" stroke-opacity="1" stroke-width="8" d=" M-66.4209976196289,107.7509994506836 C-63.999000549316406,109.72699737548828 -61.57899856567383,111.68099975585938 -59.17300033569336,113.60199737548828 C-32.29800033569336,135.06500244140625 32.29899978637695,135.06500244140625 59.17399978637695,113.60099792480469 C61.05099868774414,112.10199737548828 62.9370002746582,110.58300018310547 64.82599639892578,109.04900360107422"></path></g></g><g style="display: block;" transform="matrix(1.090000033378601,0,0,1.090000033378601,-23.03999137878418,-23.03999137878418)" opacity="1"><g opacity="1" transform="matrix(1,0,0,1,358.7040100097656,308.11700439453125)"><path fill="url(#__lottie_element_30)" fill-opacity="1" d=" M45.077999114990234,0 C45.077999114990234,28.783000946044922 24.895999908447266,52.117000579833984 0,52.117000579833984 C-24.895999908447266,52.117000579833984 -45.077999114990234,28.783000946044922 -45.077999114990234,0 C-45.077999114990234,-28.783000946044922 -24.895999908447266,-52.117000579833984 0,-52.117000579833984 C24.895999908447266,-52.117000579833984 45.077999114990234,-28.783000946044922 45.077999114990234,0z"></path></g><g opacity="1" transform="matrix(1,0,0,1,364.3739929199219,309.0530090332031)"><path stroke-linecap="round" stroke-linejoin="round" fill-opacity="0" stroke="rgb(135,120,196)" stroke-opacity="1" stroke-width="6" d=" M6.3460001945495605,-51.180999755859375 C25.409000396728516,-45.10100173950195 39.40800094604492,-24.908000946044922 39.40800094604492,-0.9359999895095825 C39.40800094604492,27.847000122070312 19.22599983215332,51.180999755859375 -5.670000076293945,51.180999755859375 C-19.094999313354492,51.180999755859375 -31.149999618530273,44.39500045776367 -39.40800094604492,33.62900161743164"></path></g><g opacity="1" transform="matrix(1,0,0,1,342.1730041503906,299.34100341796875)"><path stroke-linecap="round" stroke-linejoin="round" fill-opacity="0" stroke="rgb(180,168,230)" stroke-opacity="1" stroke-width="6" d=" M-17.207000732421875,43.340999603271484 C-24.26300048828125,34.141998291015625 -28.547000885009766,22.038000106811523 -28.547000885009766,8.776000022888184 C-28.547000885009766,-20.006999969482422 -8.364999771118164,-43.340999603271484 16.5310001373291,-43.340999603271484 C20.691999435424805,-43.340999603271484 24.722000122070312,-42.68899917602539 28.547000885009766,-41.46900177001953"></path></g><g opacity="1" transform="matrix(1,0,0,1,358.7040100097656,271.22900390625)"><path fill="rgb(135,120,196)" fill-opacity="1" d=" M7.388000011444092,0 C7.388000011444092,4.079999923706055 4.079999923706055,7.388000011444092 0,7.388000011444092 C-4.079999923706055,7.388000011444092 -7.388000011444092,4.079999923706055 -7.388000011444092,0 C-7.388000011444092,-4.079999923706055 -4.079999923706055,-7.388000011444092 0,-7.388000011444092 C4.079999923706055,-7.388000011444092 7.388000011444092,-4.079999923706055 7.388000011444092,0z"></path></g><g opacity="1" transform="matrix(1,0,0,1,360.875,313.6990051269531)"><path fill="url(#__lottie_element_31)" fill-opacity="1" d=" M30.295000076293945,-13.184000015258789 C28.69700050354004,-26.91200065612793 16.150999069213867,-31.033000946044922 9.652999877929688,-26.472999572753906 C3.1549999713897705,-21.913000106811523 0.1889999955892563,-17.499000549316406 0.1889999955892563,-17.499000549316406 C0.1889999955892563,-17.499000549316406 -2.572999954223633,-22.086999893188477 -8.854000091552734,-27.035999298095703 C-15.135000228881836,-31.985000610351562 -27.85099983215332,-28.634000778198242 -30.07200050354004,-15.022000312805176 C-32.292999267578125,-1.409999966621399 -26.468000411987305,4.204999923706055 -20.0939998626709,11.53600025177002 C-13.720000267028809,18.867000579833984 -3.005000114440918,29.135000228881836 -0.875,29.200000762939453 C1.2549999952316284,29.264999389648438 12.42300033569336,19.663000106811523 19.121999740600586,12.729999542236328 C25.820999145507812,5.796999931335449 31.89299964904785,0.5440000295639038 30.295000076293945,-13.184000015258789z"></path></g><g opacity="1" transform="matrix(1,0,0,1,360.875,313.6990051269531)"><path stroke-linecap="round" stroke-linejoin="round" fill-opacity="0" stroke="rgb(189,40,137)" stroke-opacity="1" stroke-width="6" d=" M30.295000076293945,-13.184000015258789 C28.69700050354004,-26.91200065612793 16.150999069213867,-31.033000946044922 9.652999877929688,-26.472999572753906 C3.1549999713897705,-21.913000106811523 0.1889999955892563,-17.499000549316406 0.1889999955892563,-17.499000549316406 C0.1889999955892563,-17.499000549316406 -2.572999954223633,-22.086999893188477 -8.854000091552734,-27.035999298095703 C-15.135000228881836,-31.985000610351562 -27.85099983215332,-28.634000778198242 -30.07200050354004,-15.022000312805176 C-32.292999267578125,-1.409999966621399 -26.468000411987305,4.204999923706055 -20.0939998626709,11.53600025177002 C-13.720000267028809,18.867000579833984 -3.005000114440918,29.135000228881836 -0.875,29.200000762939453 C1.2549999952316284,29.264999389648438 12.42300033569336,19.663000106811523 19.121999740600586,12.729999542236328 C25.820999145507812,5.796999931335449 31.89299964904785,0.5440000295639038 30.295000076293945,-13.184000015258789z"></path></g></g><g style="display: block;" transform="matrix(1.090000033378601,0,0,1.090000033378601,-23.040008544921875,-23.03999137878418)" opacity="1"><g opacity="1" transform="matrix(1,0,0,1,332.97198486328125,222.59300231933594)"><path stroke-linecap="round" stroke-linejoin="round" fill-opacity="0" stroke="rgb(163,78,157)" stroke-opacity="1" stroke-width="8" d=" M-26.385000228881836,-43.4900016784668 C-26.385000228881836,-43.4900016784668 25.885000228881836,-22.583999633789062 25.885000228881836,47.4900016784668"></path></g></g><g style="display: none;"><g><path></path></g></g><g style="display: none;"><path stroke-linecap="round" stroke-linejoin="round" fill-opacity="0"></path><g><g></g><g></g><g></g><g></g><g></g></g></g></g></svg>